<svg
  width="56"
  height="56"
  viewBox="0 0 56 56"
  fill="none"
  xmlns="http://www.w3.org/2000/svg"
>
  <path
    opacity="0.5"
    d="M7.40066 43.9331C10.1343 46.6668 14.5341 46.6668 23.3337 46.6668L36.7503 46.6538C42.9008 46.5894 46.3266 46.2067 48.5999 43.9333C51.3337 41.1996 51.3337 36.7999 51.3337 28.0002C51.3337 19.2007 51.3337 14.8009 48.5999 12.0672C46.3266 9.79379 42.8725 9.39794 36.7221 9.3335H23.3337C14.5341 9.3335 10.1343 9.3335 7.40066 12.0672C4.66699 14.8008 4.66699 19.2006 4.66699 28.0002C4.66699 36.7996 4.66699 41.1996 7.40066 43.9331Z"
    fill="#C5A4FA"
  />
  <path
    d="M35 2.91675C35.9665 2.91675 36.75 3.70026 36.75 4.66675V51.3334C36.75 52.2999 35.9665 53.0834 35 53.0834C34.0335 53.0834 33.25 52.2999 33.25 51.3334V4.66675C33.25 3.70026 34.0335 2.91675 35 2.91675Z"
    fill="#C5A4FA"
  />
  <path
    d="M18.6673 25.6667C19.956 25.6667 21.0007 26.7114 21.0007 28.0001C21.0007 29.2888 19.956 30.3334 18.6673 30.3334C17.3787 30.3334 16.334 29.2888 16.334 28.0001C16.334 26.7114 17.3787 25.6667 18.6673 25.6667Z"
    fill="#C5A4FA"
  />
  <path
    d="M28.0003 25.6667C29.289 25.6667 30.3337 26.7114 30.3337 28.0001C30.3337 29.2888 29.289 30.3334 28.0003 30.3334C26.7116 30.3334 25.667 29.2888 25.667 28.0001C25.667 26.7114 26.7116 25.6667 28.0003 25.6667Z"
    fill="#C5A4FA"
  />
</svg>
